# xmcd CD database file
#
# Track frame offsets:
#	150
#	24519
#	56439
#	99306
#	113107
#	161704
#	189236
#	206036
#	245336
#	268230
#	320167
#
# Disc length: 4439 seconds
#
# Revision: 1
# Processed by: cddbd v1.4PL0 Copyright (c) Steve Scherf et al.
# Submitted via: CDex 1.50beta9
#
DISCID=9711550b
DTITLE=Thelonious Monk - 85th Birthday Celebration - CD 3: 1958 - 1961: Blue Monk
DYEAR=2002
DGENRE=Jazz
TTITLE0=Nutty
TTITLE1=In Walked Bud
TTITLE2=Friday The Thirteenth
TTITLE3=Thelonious
TTITLE4=Ask Me Now
TTITLE5=Jackie-ing
TTITLE6=Blue Monk
TTITLE7=Four In One
TTITLE8=Reflections
TTITLE9=Well, You Needn't
TTITLE10=Crepuscolo with Nellie
EXTD=YEAR: 2002
EXTT0=
EXTT1=
EXTT2=
EXTT3=
EXTT4=
EXTT5=
EXTT6=
EXTT7=
EXTT8=
EXTT9=
EXTT10=
PLAYORDER=
